<svg width="18" height="20" viewBox="0 0 18 20" fill="none" xmlns="http://www.w3.org/2000/svg">
<path fill-rule="evenodd" clip-rule="evenodd" d="M18 9.48906V18.1562C18 18.9847 17.3284 19.6562 16.5 19.6562H12.75C11.9216 19.6562 11.25 18.9847 11.25 18.1562V14.4062C11.25 13.992 10.9142 13.6562 10.5 13.6562H7.5C7.08579 13.6562 6.75 13.992 6.75 14.4062V18.1562C6.75 18.9847 6.07843 19.6562 5.25 19.6562H1.5C0.671573 19.6562 0 18.9847 0 18.1562V9.48906C-6.38024e-05 9.06934 0.17573 8.66879 0.484688 8.38469L7.98469 1.30844L7.995 1.29813C8.56719 0.777751 9.44124 0.777751 10.0134 1.29813C10.0166 1.30179 10.0201 1.30524 10.0238 1.30844L17.5238 8.38469C17.8296 8.67027 18.0022 9.07062 18 9.48906V9.48906Z" fill="#637587"/>
</svg>
