<svg width="20" height="21" viewBox="0 0 20 21" fill="none" xmlns="http://www.w3.org/2000/svg">
<path fill-rule="evenodd" clip-rule="evenodd" d="M19.5306 19.1256L14.8366 14.4325C17.6629 11.0393 17.3204 6.02318 14.0591 3.0456C10.7978 0.0680132 5.77134 0.182249 2.64867 3.30492C-0.474001 6.42759 -0.588237 11.4541 2.38935 14.7154C5.36693 17.9767 10.383 18.3192 13.7762 15.4928L18.4694 20.1869C18.7624 20.4799 19.2376 20.4799 19.5306 20.1869C19.8237 19.8938 19.8237 19.4187 19.5306 19.1256ZM1.75 9.15625C1.75 5.42833 4.77208 2.40625 8.5 2.40625C12.2279 2.40625 15.25 5.42833 15.25 9.15625C15.25 12.8842 12.2279 15.9062 8.5 15.9062C4.77379 15.9021 1.75413 12.8825 1.75 9.15625Z" fill="#637587"/>
</svg>
