<svg width="20" height="21" viewBox="0 0 20 21" fill="none" xmlns="http://www.w3.org/2000/svg">
<path fill-rule="evenodd" clip-rule="evenodd" d="M10 0.90625C4.61522 0.90625 0.25 5.27147 0.25 10.6562C0.25 16.041 4.61522 20.4062 10 20.4062C15.3848 20.4062 19.75 16.041 19.75 10.6562C19.7443 5.27383 15.3824 0.911934 10 0.90625ZM4.945 17.1719C6.0476 15.4474 7.9532 14.4041 10 14.4041C12.0468 14.4041 13.9524 15.4474 15.055 17.1719C12.0817 19.4843 7.91832 19.4843 4.945 17.1719ZM7 9.90625C7 8.2494 8.34315 6.90625 10 6.90625C11.6569 6.90625 13 8.2494 13 9.90625C13 11.5631 11.6569 12.9062 10 12.9062C8.34315 12.9062 7 11.5631 7 9.90625ZM16.165 16.1322C15.3285 14.9201 14.1524 13.9823 12.7844 13.4369C14.2906 12.2505 14.8797 10.24 14.2519 8.42832C13.6242 6.61664 11.9174 5.40173 10 5.40173C8.08263 5.40173 6.37584 6.61664 5.74805 8.42832C5.12026 10.24 5.70936 12.2505 7.21562 13.4369C5.84764 13.9823 4.67147 14.9201 3.835 16.1322C0.890462 12.821 1.08752 7.77506 4.28133 4.70355C7.47513 1.63204 12.5249 1.63204 15.7187 4.70355C18.9125 7.77506 19.1095 12.821 16.165 16.1322Z" fill="#637587"/>
</svg>
